<?xml version="1.0" encoding="utf-8"?>
<!-- Generator: Adobe Illustrator 21.1.0, SVG Export Plug-In . SVG Version: 6.00 Build 0)  -->
<!DOCTYPE svg PUBLIC "-//W3C//DTD SVG 1.1//EN" "http://www.w3.org/Graphics/SVG/1.1/DTD/svg11.dtd">
<svg version="1.1" id="Layer_1" xmlns="http://www.w3.org/2000/svg" xmlns:xlink="http://www.w3.org/1999/xlink" x="0px" y="0px"
	 viewBox="0 0 255.3 42.8" style="enable-background:new 0 0 255.3 42.8;" xml:space="preserve">
<style type="text/css">
	.st0{fill:#007FB8;}
	.st1{fill:#00B4EE;}
	.st2{fill:#EFFAFE;}
</style>
<g>
	<rect x="7.6" y="16.3" transform="matrix(0.7071 -0.7071 0.7071 0.7071 -13.8436 21.1612)" class="st0" width="22" height="22"/>
	<rect x="4.6" y="4.6" transform="matrix(0.7071 -0.7071 0.7071 0.7071 -6.4436 15.5562)" class="st1" width="22" height="22"/>
	<rect x="12.8" y="5.2" transform="matrix(0.7071 -0.7071 0.7071 0.7071 -4.5089 21.6024)" class="st2" width="22" height="22"/>
	<path class="st1" d="M11.6,17.7l2.5-0.2c0.1,0.4,0.2,0.7,0.3,0.9c0.3,0.3,0.7,0.5,1.2,0.5c0.4,0,0.7-0.1,0.9-0.3
		c0.2-0.2,0.3-0.4,0.3-0.6s-0.1-0.4-0.3-0.6s-0.6-0.3-1.3-0.5c-1.2-0.3-2-0.6-2.5-1c-0.5-0.4-0.7-1-0.7-1.6c0-0.4,0.1-0.9,0.4-1.2
		c0.3-0.4,0.6-0.7,1.1-0.9s1.2-0.3,2.1-0.3c1.1,0,1.9,0.2,2.5,0.6c0.6,0.4,0.9,1.1,1,1.9l-2.5,0.1c-0.1-0.4-0.2-0.7-0.4-0.8
		c-0.2-0.2-0.5-0.3-0.9-0.3c-0.3,0-0.5,0.1-0.7,0.2c-0.2,0.1-0.3,0.3-0.3,0.5c0,0.1,0.1,0.3,0.2,0.4c0.1,0.1,0.4,0.2,0.9,0.3
		c1.2,0.2,2,0.5,2.5,0.8s0.9,0.6,1.1,0.9c0.2,0.4,0.3,0.8,0.3,1.3s-0.2,1.1-0.5,1.5c-0.3,0.5-0.7,0.8-1.3,1.1
		c-0.5,0.2-1.2,0.4-2.1,0.4c-1.5,0-2.5-0.3-3-0.8C11.9,19.2,11.6,18.5,11.6,17.7z"/>
	<polygon class="st1" points="20.7,12 27.2,12 27.2,13.8 23.3,13.8 23.3,15.3 26.6,15.3 26.6,17 23.3,17 23.3,20.5 20.7,20.5 	"/>
	<path class="st1" d="M28.1,17.7l2.5-0.2c0.1,0.4,0.2,0.7,0.3,0.9c0.3,0.3,0.7,0.5,1.2,0.5c0.4,0,0.7-0.1,0.9-0.3
		c0.2-0.2,0.3-0.4,0.3-0.6s-0.1-0.4-0.3-0.6s-0.6-0.3-1.3-0.5c-1.2-0.3-2-0.6-2.5-1c-0.5-0.4-0.7-1-0.7-1.6c0-0.4,0.1-0.9,0.4-1.2
		c0.3-0.4,0.6-0.7,1.1-0.9s1.2-0.3,2.1-0.3c1.1,0,1.9,0.2,2.5,0.6c0.6,0.4,0.9,1.1,1,1.9l-2.5,0.1c-0.1-0.4-0.2-0.7-0.4-0.8
		c-0.2-0.2-0.5-0.3-0.9-0.3c-0.3,0-0.5,0.1-0.7,0.2c-0.2,0.1-0.2,0.3-0.2,0.5c0,0.1,0.1,0.3,0.2,0.4c0.1,0.1,0.4,0.2,0.9,0.3
		c1.2,0.2,2,0.5,2.5,0.8s0.9,0.6,1.1,0.9c0.2,0.4,0.3,0.8,0.3,1.3s-0.2,1.1-0.5,1.5c-0.3,0.5-0.7,0.8-1.3,1.1
		c-0.5,0.2-1.2,0.4-2.1,0.4c-1.5,0-2.5-0.3-3-0.8C28.5,19.2,28.2,18.5,28.1,17.7z"/>
	<g>
		<path class="st1" d="M46.4,32.6l3.6-0.2c0.1,0.6,0.2,1,0.5,1.3c0.4,0.5,0.9,0.7,1.7,0.7c0.5,0,0.9-0.1,1.2-0.4
			c0.3-0.3,0.4-0.5,0.4-0.9c0-0.3-0.1-0.6-0.4-0.8s-0.9-0.5-1.9-0.7c-1.7-0.4-2.8-0.9-3.5-1.5s-1.1-1.4-1.1-2.4
			c0-0.6,0.2-1.2,0.5-1.8c0.4-0.6,0.9-1,1.6-1.3s1.7-0.5,3-0.5c1.6,0,2.7,0.3,3.6,0.9c0.8,0.6,1.3,1.5,1.5,2.8L53.5,28
			c-0.1-0.5-0.3-0.9-0.6-1.2c-0.3-0.2-0.7-0.4-1.3-0.4c-0.4,0-0.8,0.1-1,0.3c-0.2,0.2-0.3,0.4-0.3,0.7c0,0.2,0.1,0.4,0.3,0.5
			c0.2,0.2,0.6,0.3,1.3,0.5c1.6,0.4,2.8,0.7,3.5,1.1s1.2,0.8,1.6,1.4c0.3,0.5,0.5,1.1,0.5,1.8c0,0.8-0.2,1.5-0.6,2.2s-1,1.2-1.8,1.5
			s-1.8,0.5-2.9,0.5c-2.1,0-3.5-0.4-4.3-1.2C46.9,34.9,46.5,33.9,46.4,32.6z"/>
		<polygon class="st1" points="59.3,24.5 69.4,24.5 69.4,27.1 63.1,27.1 63.1,29 69,29 69,31.5 63.1,31.5 63.1,33.9 69.6,33.9 
			69.6,36.7 59.3,36.7 		"/>
		<polygon class="st1" points="71.7,24.5 75.2,24.5 79.7,31.2 79.7,24.5 83.3,24.5 83.3,36.7 79.7,36.7 75.2,30 75.2,36.7 
			71.7,36.7 		"/>
		<polygon class="st1" points="85,24.5 96.4,24.5 96.4,27.5 92.6,27.5 92.6,36.7 88.8,36.7 88.8,27.5 85,27.5 		"/>
		<path class="st1" d="M101.9,36.7v-5h0.3c0.3,0,0.6,0.1,0.9,0.3c0.2,0.1,0.4,0.5,0.7,0.9l2,3.7h4.3l-1.8-3.5
			c-0.1-0.2-0.3-0.4-0.5-0.8c-0.3-0.3-0.5-0.5-0.6-0.6c-0.2-0.1-0.5-0.3-1-0.5c0.6-0.1,1-0.3,1.3-0.5c0.5-0.3,0.9-0.7,1.2-1.2
			s0.4-1.1,0.4-1.7c0-0.8-0.2-1.4-0.6-2c-0.4-0.5-0.9-0.9-1.5-1.1s-1.5-0.3-2.7-0.3H98v12.2L101.9,36.7L101.9,36.7z M101.9,26.9h1.6
			c0.7,0,1.1,0.1,1.4,0.3c0.2,0.2,0.4,0.5,0.4,0.9c0,0.3-0.1,0.5-0.2,0.7c-0.2,0.2-0.4,0.3-0.6,0.4c-0.5,0.1-0.8,0.2-1,0.2h-1.6
			L101.9,26.9"/>
		<path class="st1" d="M119.4,36.7h3.9l-4.6-12.2h-4.1L110,36.7h3.8l0.6-2h4.3L119.4,36.7z M115.4,32l1.3-4.4L118,32H115.4"/>
		<polygon class="st1" points="124.6,24.5 128.4,24.5 128.4,33.7 134.2,33.7 134.2,36.7 124.6,36.7 		"/>
		<path class="st1" d="M139.8,36.7v-5h0.3c0.3,0,0.6,0.1,0.9,0.3c0.2,0.1,0.4,0.5,0.7,0.9l2,3.7h4.3l-1.8-3.5
			c-0.1-0.2-0.3-0.4-0.5-0.8c-0.3-0.3-0.5-0.5-0.6-0.6c-0.2-0.1-0.5-0.3-1-0.5c0.6-0.1,1-0.3,1.3-0.5c0.5-0.3,0.9-0.7,1.2-1.2
			s0.4-1.1,0.4-1.7c0-0.8-0.2-1.4-0.6-2c-0.4-0.5-0.9-0.9-1.5-1.1s-1.5-0.3-2.7-0.3h-6.3v12.2L139.8,36.7L139.8,36.7z M139.8,26.9
			h1.6c0.7,0,1.1,0.1,1.4,0.3c0.2,0.2,0.4,0.5,0.4,0.9c0,0.3-0.1,0.5-0.2,0.7c-0.2,0.2-0.4,0.3-0.6,0.4c-0.5,0.1-0.8,0.2-1,0.2h-1.6
			L139.8,26.9"/>
		<polygon class="st1" points="149.2,24.5 159.3,24.5 159.3,27.1 152.9,27.1 152.9,29 158.8,29 158.8,31.5 152.9,31.5 152.9,33.9 
			159.5,33.9 159.5,36.7 149.2,36.7 		"/>
		<path class="st1" d="M167.6,32.3v-2.5h5.8v5.1c-1.1,0.8-2.1,1.3-3,1.6s-1.9,0.4-3,0.4c-1.4,0-2.6-0.2-3.5-0.7s-1.6-1.2-2.1-2.2
			s-0.8-2.1-0.8-3.4s0.3-2.5,0.8-3.5s1.4-1.7,2.4-2.2c0.8-0.4,1.9-0.6,3.3-0.6c1.3,0,2.4,0.1,3,0.4c0.7,0.2,1.2,0.6,1.7,1.1
			s0.8,1.2,1,1.9l-3.6,0.6c-0.2-0.5-0.4-0.8-0.8-1.1c-0.4-0.2-0.8-0.4-1.4-0.4c-0.8,0-1.5,0.3-2,0.9s-0.7,1.5-0.7,2.7
			c0,1.3,0.2,2.3,0.7,2.8c0.5,0.6,1.2,0.9,2.1,0.9c0.4,0,0.8-0.1,1.2-0.2c0.4-0.1,0.8-0.3,1.3-0.6v-1.2h-2.4V32.3z"/>
		<rect x="175.8" y="24.5" class="st1" width="3.8" height="12.2"/>
		<path class="st1" d="M181.6,32.6l3.6-0.2c0.1,0.6,0.2,1,0.5,1.3c0.4,0.5,0.9,0.7,1.7,0.7c0.5,0,0.9-0.1,1.2-0.4
			c0.3-0.3,0.4-0.5,0.4-0.9c0-0.3-0.1-0.6-0.4-0.8c-0.3-0.2-0.9-0.5-1.9-0.7c-1.7-0.4-2.8-0.9-3.5-1.5s-1.1-1.4-1.1-2.4
			c0-0.6,0.2-1.2,0.5-1.8c0.4-0.6,0.9-1,1.6-1.3c0.7-0.3,1.7-0.5,3-0.5c1.6,0,2.7,0.3,3.6,0.9c0.8,0.6,1.3,1.5,1.5,2.8l-3.6,0.2
			c-0.1-0.5-0.3-0.9-0.6-1.2c-0.3-0.2-0.7-0.4-1.3-0.4c-0.4,0-0.8,0.1-1,0.3c-0.2,0.2-0.3,0.4-0.3,0.7c0,0.2,0.1,0.4,0.3,0.5
			c0.2,0.2,0.6,0.3,1.3,0.5c1.6,0.4,2.8,0.7,3.5,1.1s1.2,0.8,1.6,1.4c0.3,0.5,0.5,1.1,0.5,1.8c0,0.8-0.2,1.5-0.6,2.2
			c-0.4,0.7-1,1.2-1.8,1.5s-1.8,0.5-2.9,0.5c-2.1,0-3.5-0.4-4.3-1.2C182.2,34.9,181.7,33.9,181.6,32.6z"/>
		<polygon class="st1" points="193.7,24.5 205.2,24.5 205.2,27.5 201.3,27.5 201.3,36.7 197.6,36.7 197.6,27.5 193.7,27.5 		"/>
		<polygon class="st1" points="206.9,24.5 217,24.5 217,27.1 210.6,27.1 210.6,29 216.5,29 216.5,31.5 210.6,31.5 210.6,33.9 
			217.1,33.9 217.1,36.7 206.9,36.7 		"/>
		<path class="st1" d="M223,36.7v-5h0.3c0.3,0,0.6,0.1,0.9,0.3c0.2,0.1,0.4,0.5,0.7,0.9l2,3.7h4.3l-1.8-3.5
			c-0.1-0.2-0.3-0.4-0.5-0.8c-0.3-0.3-0.5-0.5-0.6-0.6c-0.2-0.1-0.5-0.3-1-0.5c0.6-0.1,1-0.3,1.3-0.5c0.5-0.3,0.9-0.7,1.2-1.2
			c0.3-0.5,0.4-1.1,0.4-1.7c0-0.8-0.2-1.4-0.6-2c-0.4-0.5-0.9-0.9-1.5-1.1s-1.5-0.3-2.7-0.3h-6.3v12.2L223,36.7L223,36.7z M223,26.9
			h1.6c0.7,0,1.1,0.1,1.4,0.3c0.2,0.2,0.4,0.5,0.4,0.9c0,0.3-0.1,0.5-0.2,0.7c-0.2,0.2-0.4,0.3-0.6,0.4c-0.5,0.1-0.8,0.2-1,0.2H223
			L223,26.9"/>
		<polygon class="st1" points="232.4,24.5 242.5,24.5 242.5,27.1 236.2,27.1 236.2,29 242.1,29 242.1,31.5 236.2,31.5 236.2,33.9 
			242.7,33.9 242.7,36.7 232.4,36.7 		"/>
		<polygon class="st1" points="243.9,24.5 255.3,24.5 255.3,27.5 251.5,27.5 251.5,36.7 247.7,36.7 247.7,27.5 243.9,27.5 		"/>
	</g>
	<g>
		<path class="st1" d="M46.8,15.5l2.7-0.2c0.1,0.4,0.2,0.8,0.4,1c0.3,0.4,0.7,0.6,1.2,0.6c0.4,0,0.7-0.1,0.9-0.3
			c0.2-0.2,0.3-0.4,0.3-0.7c0-0.2-0.1-0.4-0.3-0.6c-0.2-0.2-0.7-0.4-1.4-0.5c-1.2-0.3-2.1-0.6-2.6-1.1s-0.8-1-0.8-1.8
			c0-0.5,0.1-0.9,0.4-1.3c0.3-0.4,0.7-0.7,1.2-1c0.5-0.2,1.3-0.4,2.2-0.4c1.2,0,2.1,0.2,2.7,0.7c0.6,0.4,1,1.1,1.1,2.1l-2.7,0.2
			c-0.1-0.4-0.2-0.7-0.4-0.9c-0.2-0.2-0.5-0.3-0.9-0.3c-0.3,0-0.6,0.1-0.7,0.2c-0.2,0.1-0.2,0.3-0.2,0.5c0,0.1,0.1,0.3,0.2,0.4
			c0.1,0.1,0.4,0.2,0.9,0.3c1.2,0.3,2.1,0.5,2.7,0.8c0.5,0.3,0.9,0.6,1.2,1c0.2,0.4,0.4,0.9,0.4,1.4c0,0.6-0.2,1.1-0.5,1.6
			s-0.8,0.9-1.4,1.1c-0.6,0.3-1.3,0.4-2.2,0.4c-1.6,0-2.6-0.3-3.2-0.9C47.2,17.2,46.9,16.5,46.8,15.5z"/>
		<path class="st1" d="M55.9,9.4h8.6v2.3h-2.9v6.9h-2.8v-6.9h-2.9C55.9,11.7,55.9,9.4,55.9,9.4z"/>
		<path class="st1" d="M65.9,9.4h2.8v9.1h-2.8V9.4z"/>
		<path class="st1" d="M70.7,9.4h7v2h-4.1V13h3.5v1.8h-3.5v3.7h-2.8L70.7,9.4L70.7,9.4z"/>
		<path class="st1" d="M78.6,9.4h8.6v2.3h-2.9v6.9h-2.8v-6.9h-2.9C78.6,11.7,78.6,9.4,78.6,9.4z"/>
		<path class="st1" d="M88.4,9.4H96v2h-4.7v1.5h4.4v1.9h-4.4v1.8h4.9v2.1h-7.7V9.4H88.4z"/>
		<path class="st1" d="M97.7,9.4h2.8v6.9h4.4v2.2h-7.2C97.7,18.5,97.7,9.4,97.7,9.4z"/>
		<path class="st1" d="M105.7,15.5l2.7-0.2c0.1,0.4,0.2,0.8,0.4,1c0.3,0.4,0.7,0.6,1.2,0.6c0.4,0,0.7-0.1,0.9-0.3
			c0.2-0.2,0.3-0.4,0.3-0.7c0-0.2-0.1-0.4-0.3-0.6c-0.2-0.2-0.7-0.4-1.4-0.5c-1.2-0.3-2.1-0.6-2.6-1.1s-0.8-1-0.8-1.8
			c0-0.5,0.1-0.9,0.4-1.3c0.3-0.4,0.7-0.7,1.2-1c0.5-0.2,1.3-0.4,2.2-0.4c1.2,0,2.1,0.2,2.7,0.7c0.6,0.4,1,1.1,1.1,2.1l-2.7,0.2
			c-0.1-0.4-0.2-0.7-0.4-0.9s-0.5-0.3-0.9-0.3c-0.3,0-0.6,0.1-0.7,0.2c-0.2,0.1-0.2,0.3-0.2,0.5c0,0.1,0.1,0.3,0.2,0.4
			c0.1,0.1,0.4,0.2,0.9,0.3c1.2,0.3,2.1,0.5,2.7,0.8c0.5,0.3,0.9,0.6,1.2,1c0.2,0.4,0.4,0.9,0.4,1.4c0,0.6-0.2,1.1-0.5,1.6
			s-0.8,0.9-1.4,1.1c-0.6,0.3-1.3,0.4-2.2,0.4c-1.6,0-2.6-0.3-3.2-0.9C106.1,17.2,105.8,16.5,105.7,15.5z"/>
		<path class="st1" d="M115.4,9.4h7.6v2h-4.7v1.5h4.4v1.9h-4.4v1.8h4.9v2.1h-7.7V9.4H115.4z"/>
		<path class="st1" d="M124.6,9.4h2.6l3.4,5.1V9.4h2.7v9.1h-2.7l-3.4-5v5h-2.7L124.6,9.4L124.6,9.4z"/>
	</g>
</g>
</svg>
