<?xml version="1.0" encoding="utf-8"?>
<!-- Generator: Adobe Illustrator 18.1.1, SVG Export Plug-In . SVG Version: 6.00 Build 0)  -->
<!DOCTYPE svg PUBLIC "-//W3C//DTD SVG 1.1//EN" "http://www.w3.org/Graphics/SVG/1.1/DTD/svg11.dtd">
<svg version="1.1" id="Layer_1" xmlns="http://www.w3.org/2000/svg" xmlns:xlink="http://www.w3.org/1999/xlink" x="0px" y="0px"
	 viewBox="531 183.5 845.1 844.9" enable-background="new 531 183.5 845.1 844.9" xml:space="preserve">
<polygon fill="#00b2ef" points="1376.1,1028.4 531,1028.4 531,183.5 1376.1,183.5 "/>
<g>
	<path fill="#ffffff" d="M722.9,431.6c0-24.3-0.7-40.3-1.4-54.4h44.5l1.6,30.5h1.4c8.4-24.1,28.7-34.1,44.6-34.1
		c4.8,0,7.1,0,10.9,0.7v48.4c-3.7-0.7-8-1.4-13.9-1.4c-18.9,0-31.8,10.2-35.2,26.1c-0.7,3.4-1.1,7.5-1.1,11.4v83.9h-51.4
		L722.9,431.6L722.9,431.6z"/>
	<path fill="#ffffff" d="M888.4,476.2c1.6,21.2,22.7,31.4,46.8,31.4c17.7,0,31.8-2.3,45.7-6.8l6.8,34.8c-17,6.8-37.5,10.2-59.8,10.2
		c-56.2,0-88.4-32.5-88.4-84.3c0-42,26.1-88.4,83.5-88.4c53.4,0,73.7,41.6,73.7,82.5c0,8.7-1.1,16.6-1.6,20.4H888.4V476.2z
		 M948.9,441.1c0-12.5-5.4-33.6-29.1-33.6c-21.6,0-30.5,19.6-31.8,33.6H948.9z"/>
	<path fill="#ffffff" d="M1185.5,377c-0.7,10.5-1.4,24.3-1.4,49.1v92.3c0,31.8-6.4,57.8-25,74.4c-18.2,15.5-43,20.4-67.3,20.4
		c-21.6,0-44.6-4.5-59.6-12.9l10.2-38.9c10.5,6.1,28.7,12.5,48,12.5c24.3,0,43-13.2,43-43.6v-10.9h-0.7
		c-9.8,13.9-25.7,21.6-44.6,21.6c-40.9,0-70-33.2-70-80.9c0-53.2,34.5-86.9,75.2-86.9c22.7,0,37,9.8,45.3,23.4h0.7l1.6-19.6
		L1185.5,377L1185.5,377z M1132.6,444.5c0-3.4-0.4-6.8-1.1-9.5c-3.7-13.6-13.6-22.7-27.7-22.7c-18.6,0-33.9,17-33.9,47
		c0,24.6,12.1,43.9,33.9,43.9c13.2,0,23.7-8.7,27.1-21.1c1.4-3.7,1.6-9.1,1.6-13.6L1132.6,444.5L1132.6,444.5z"/>
	<path fill="#ffffff" d="M776.1,627.1c0,14.3-10.9,25.7-27.7,25.7c-16.2,0-27.1-11.4-26.8-25.7c-0.4-14.8,10.5-26.1,27.1-26.1
		C765.4,601,775.8,612.3,776.1,627.1z M722.9,838.5V673h51.4v165.5H722.9z"/>
	<path fill="#ffffff" d="M815.7,725.8c0-20.7-0.7-38.2-1.4-52.8h44.6l2.3,22.7h1.1c6.8-10.5,23.7-26.4,51.1-26.4
		c33.9,0,59.3,22.3,59.3,71.1v98.2h-51.4v-91.8c0-21.2-7.5-35.9-26.1-35.9c-14.3,0-22.7,9.8-26.1,19.3c-1.4,3-2,8-2,12.9v95.5h-51.4
		L815.7,725.8L815.7,725.8z"/>
	<path fill="#ffffff" d="M1013.9,725.8c0-20.7-0.7-38.2-1.4-52.8h44.6l2.3,22.7h1.1c6.8-10.5,23.7-26.4,51.1-26.4
		c33.9,0,59.3,22.3,59.3,71.1v98.2h-51.4v-91.8c0-21.2-7.5-35.9-26.1-35.9c-14.3,0-22.7,9.8-26.1,19.3c-1.4,3-2,8-2,12.9v95.5h-51.4
		L1013.9,725.8L1013.9,725.8z"/>
</g>
</svg>
